<svg width="48" height="48" viewBox="0 0 48 48" fill="none" xmlns="http://www.w3.org/2000/svg">
<path d="M23.96 47.9723L22.708 47.3463C18.32 45.1523 4 36.9683 4 23.7463V10.2703C4 8.11032 5.376 6.20232 7.426 5.52432L24 0.0283203L40.574 5.52432C42.622 6.20432 44 8.11232 44 10.2703V23.7463C44 38.7443 29.656 45.6823 25.26 47.4503L23.96 47.9723ZM24 2.13632L8.056 7.42232C6.826 7.83032 6 8.97432 6 10.2703V23.7463C6 35.8223 19.472 43.4943 23.602 45.5583L24.05 45.7823L24.514 45.5963C28.616 43.9463 42 37.4923 42 23.7483V10.2683C42 8.97432 41.174 7.82832 39.946 7.42032L24 2.13632Z" fill="#622C3A"/>
<path d="M21.002 30C20.234 30 19.464 29.708 18.878 29.122L12.302 22.718L13.696 21.284L20.282 27.698C20.684 28.098 21.318 28.096 21.706 27.708L34.296 15.29L35.702 16.714L23.116 29.128C22.534 29.71 21.768 30.002 21.002 30.002V30Z" fill="#622C3A"/>
</svg>
