<svg width="48" height="48" viewBox="0 0 48 48" fill="none" xmlns="http://www.w3.org/2000/svg">
<g clip-path="url(#clip0_4444_773)">
<path d="M43 8H36V3C36 1.34 34.66 0 33 0H15C13.34 0 12 1.34 12 3V8H5C2.24 8 0 10.24 0 13V48H48V13C48 10.24 45.76 8 43 8ZM14 3C14 2.44 14.44 2 15 2H33C33.56 2 34 2.44 34 3V8H14V3ZM46 46H2V13C2 11.34 3.34 10 5 10H43C44.66 10 46 11.34 46 13V46Z" fill="#622C3A"/>
</g>
<defs>
<clipPath id="clip0_4444_773">
<rect width="48" height="48" fill="white"/>
</clipPath>
</defs>
</svg>
