<svg width="48" height="48" viewBox="0 0 48 48" fill="none" xmlns="http://www.w3.org/2000/svg">
<path d="M12 38H36V40H12V38ZM36 32H12V34H36V32ZM24 7C24 4.244 26.244 2 29 2C31.756 2 34 4.244 34 7V24C34 25.102 33.102 26 32 26C30.898 26 30 25.102 30 24V8H28V24C28 26.206 29.794 28 32 28C34.206 28 36 26.206 36 24V7C36 3.14 32.86 0 29 0C25.14 0 22 3.14 22 7V22H24V7ZM12 26V28H25.11C24.748 27.38 24.468 26.712 24.284 26H12ZM39 0H37.486C37.992 0.612 38.424 1.286 38.79 2H39C40.654 2 42 3.346 42 5V46H6V5C6 3.346 7.346 2 9 2H19.21C19.576 1.286 20.008 0.612 20.514 0H9C6.244 0 4 2.244 4 5V48H44V5C44 2.244 41.756 0 39 0Z" fill="#622C3A"/>
</svg>
