<svg width="48" height="48" viewBox="0 0 48 48" fill="none" xmlns="http://www.w3.org/2000/svg">
<path d="M24 4C10.542 4 0 9.71 0 17V31C0 38.29 10.542 44 24 44C37.458 44 48 38.29 48 31V17C48 9.71 37.458 4 24 4ZM24 6C35.924 6 46 11.038 46 17C46 22.962 35.924 28 24 28C12.076 28 2 22.962 2 17C2 11.038 12.076 6 24 6ZM14 28.846V40.744C11.752 40.152 9.728 39.37 8 38.446V26.748C9.778 27.602 11.792 28.31 14 28.846ZM16 29.272C18.196 29.68 20.544 29.922 23 29.974V41.974C20.552 41.916 18.196 41.652 16 41.208V29.272ZM25 29.974C27.456 29.922 29.804 29.68 32 29.272V41.208C29.804 41.652 27.448 41.916 25 41.974V29.974ZM34 28.848C36.208 28.312 38.222 27.602 40 26.75V38.448C38.272 39.372 36.248 40.154 34 40.746V28.848ZM2 31V22.27C3.002 23.524 4.36 24.662 6 25.666V37.224C3.494 35.44 2 33.29 2 31.002V31ZM46 31C46 33.29 44.506 35.438 42 37.222V25.664C43.64 24.662 44.998 23.522 46 22.268V30.998V31Z" fill="#622C3A"/>
</svg>
