<svg width="48" height="48" viewBox="0 0 48 48" fill="none" xmlns="http://www.w3.org/2000/svg">
<g clip-path="url(#clip0_4444_505)">
<path d="M24 0C10.766 0 0 10.766 0 24C0 37.234 10.766 48 24 48H48V24C48 10.766 37.234 0 24 0ZM46 46H24C11.87 46 2 36.13 2 24C2 11.87 11.87 2 24 2C36.13 2 46 11.87 46 24V46ZM31.874 16.556C32.47 19.958 30.856 23.356 27.856 25.01C26.334 25.85 25 28.304 25 30.266V32H23V30.266C23 27.586 24.746 24.442 26.892 23.26C29.178 21.998 30.36 19.504 29.904 16.902C29.482 14.496 27.504 12.52 25.096 12.096C23.286 11.786 21.528 12.242 20.144 13.402C18.782 14.546 18 16.222 18 18H16C16 15.628 17.042 13.396 18.858 11.872C20.674 10.346 23.072 9.712 25.442 10.128C28.664 10.692 31.308 13.336 31.874 16.558V16.556ZM26 38C26 39.104 25.104 40 24 40C22.896 40 22 39.104 22 38C22 36.896 22.896 36 24 36C25.104 36 26 36.896 26 38Z" fill="white"/>
</g>
<defs>
<clipPath id="clip0_4444_505">
<rect width="48" height="48" fill="white"/>
</clipPath>
</defs>
</svg>
