<svg width="48" height="48" viewBox="0 0 48 48" fill="none" xmlns="http://www.w3.org/2000/svg">
<path d="M43 2H5C2.242 2 0 4.244 0 7V46H33C30.46 46 28.096 45.26 26.094 44H2V18H46V38.93L48 40.93V7C48 4.244 45.758 2 43 2ZM2 16V7C2 5.346 3.346 4 5 4H43C44.654 4 46 5.346 46 7V16H2ZM10 10C10 11.104 9.104 12 8 12C6.896 12 6 11.104 6 10C6 8.896 6.896 8 8 8C9.104 8 10 8.896 10 10ZM16 10C16 11.104 15.104 12 14 12C12.896 12 12 11.104 12 10C12 8.896 12.896 8 14 8C15.104 8 16 8.896 16 10ZM22 10C22 11.104 21.104 12 20 12C18.896 12 18 11.104 18 10C18 8.896 18.896 8 20 8C21.104 8 22 8.896 22 10ZM42 33C42 28.038 37.962 24 33 24C28.038 24 24 28.038 24 33C24 37.962 28.038 42 33 42C35.12 42 37.046 41.232 38.586 40L45.796 47.21L47.21 45.796L40 38.586C41.232 37.046 42 35.12 42 33ZM33 40C29.14 40 26 36.86 26 33C26 29.14 29.14 26 33 26C36.86 26 40 29.14 40 33C40 36.86 36.86 40 33 40Z" fill="#622C3A"/>
</svg>
