<svg width="48" height="48" viewBox="0 0 48 48" fill="none" xmlns="http://www.w3.org/2000/svg">
<g clip-path="url(#clip0_4459_7083)">
<path d="M21.736 37.912L22.416 39.84C21.622 39.936 20.818 40 20 40C8.972 40 0 31.028 0 20C0 8.972 8.972 0 20 0C31.028 0 40 8.972 40 20C40 20.814 39.936 21.614 39.842 22.402L37.914 21.716C37.968 21.15 38.002 20.578 38.002 19.998C38 10.074 29.926 2 20 2C10.074 2 2 10.074 2 20C2 29.926 10.074 38 20 38C20.586 38 21.164 37.966 21.736 37.912ZM20 10C25.124 10 29.314 13.89 29.886 18.864L31.98 19.608C31.772 13.172 26.486 7.998 20 7.998C13.382 7.998 8 13.38 8 19.998C8 26.494 13.19 31.788 19.64 31.98L18.9 29.888C13.908 29.332 10 25.136 10 20C10 14.486 14.486 10 20 10ZM39.486 38.072L47.708 46.294L46.294 47.708L38.072 39.486L29.548 48.012L22.242 27.334C21.71 25.862 22.068 24.254 23.176 23.146C24.27 22.054 25.922 21.688 27.372 22.214L48.01 29.548L39.488 38.07L39.486 38.072ZM30.376 44.356L44.356 30.374L26.696 24.096C26.462 24.012 26.228 23.972 25.992 23.972C25.466 23.972 24.968 24.18 24.588 24.562C24.036 25.116 23.858 25.92 24.126 26.662L30.376 44.358V44.356Z" fill="#622C3A"/>
</g>
<defs>
<clipPath id="clip0_4459_7083">
<rect width="48" height="48" fill="white"/>
</clipPath>
</defs>
</svg>
