<svg width="48" height="48" viewBox="0 0 48 48" fill="none" xmlns="http://www.w3.org/2000/svg">
<g clip-path="url(#clip0_4444_762)">
<path d="M12.928 27.07L20.928 35.07L19.514 36.484L11.514 28.484L12.928 27.07ZM48 36C48 39.206 46.752 42.218 44.484 44.484C42.218 46.752 39.204 48 36 48C32.796 48 29.782 46.752 27.516 44.484L23.902 40.872L20.482 44.266C18.146 46.604 15.072 47.774 12 47.774C8.928 47.774 5.854 46.604 3.514 44.264C1.248 41.996 0 38.982 0 35.778C0 32.574 1.248 29.56 3.514 27.294L6.93 23.904L3.514 20.486C1.248 18.22 0 15.206 0 12.002C0 8.798 1.248 5.782 3.514 3.516C5.782 1.248 8.794 0 12 0C15.206 0 18.218 1.248 20.486 3.516L23.966 6.996L27.474 3.514C29.738 1.248 32.752 0 35.956 0C39.16 0 42.174 1.248 44.442 3.516C49.12 8.194 49.12 15.808 44.442 20.484L40.934 23.966L44.482 27.516C46.75 29.782 48 32.796 48 36ZM8.35 22.494L22.546 8.406L19.07 4.932C17.182 3.044 14.67 2.002 11.998 2.002C9.326 2.002 6.816 3.044 4.926 4.932C3.036 6.82 1.998 9.33 1.998 12.002C1.998 14.674 3.038 17.184 4.926 19.072L8.348 22.494H8.35ZM43.03 19.07C46.926 15.174 46.926 8.83 43.03 4.932C41.142 3.044 38.63 2.002 35.958 2.002C33.286 2.002 30.776 3.044 28.888 4.932L4.926 28.708C3.04 30.594 2 33.106 2 35.776C2 38.446 3.04 40.96 4.928 42.848C8.828 46.748 15.172 46.744 19.07 42.848L43.03 19.066V19.07ZM45.998 36.002C45.998 33.332 44.956 30.82 43.068 28.932L39.514 25.376L25.318 39.466L28.926 43.072C30.814 44.96 33.326 46.002 35.996 46.002C38.666 46.002 41.178 44.96 43.066 43.072C44.954 41.184 45.996 38.672 45.996 36.002H45.998ZM27.07 12.93L35.07 20.93L36.484 19.516L28.484 11.516L27.07 12.93ZM18 26C19.104 26 20 25.104 20 24C20 22.896 19.104 22 18 22C16.896 22 16 22.896 16 24C16 25.104 16.896 26 18 26ZM24 16C22.896 16 22 16.896 22 18C22 19.104 22.896 20 24 20C25.104 20 26 19.104 26 18C26 16.896 25.104 16 24 16ZM24 28C22.896 28 22 28.896 22 30C22 31.104 22.896 32 24 32C25.104 32 26 31.104 26 30C26 28.896 25.104 28 24 28ZM30 22C28.896 22 28 22.896 28 24C28 25.104 28.896 26 30 26C31.104 26 32 25.104 32 24C32 22.896 31.104 22 30 22Z" fill="#622C3A"/>
</g>
<defs>
<clipPath id="clip0_4444_762">
<rect width="48" height="48" fill="white"/>
</clipPath>
</defs>
</svg>
