<svg width="48" height="48" viewBox="0 0 48 48" fill="none" xmlns="http://www.w3.org/2000/svg">
<g clip-path="url(#clip0_4444_771)">
<path d="M46 33.564C47.28 30.632 48 27.4 48 24C48 20.6 47.28 17.37 46 14.436V14H45.79C41.988 5.752 33.662 0 24 0C14.338 0 6.012 5.752 2.21 14H2V14.436C0.72 17.368 0 20.6 0 24C0 27.4 0.72 30.63 2 33.564V34H2.21C6.012 42.248 14.336 48 24 48C33.664 48 41.988 42.248 45.79 34H46V33.564ZM44.472 32H34.662C35.47 29.504 36 26.822 36 24C36 21.178 35.47 18.496 34.662 16H44.472C45.446 18.484 46 21.176 46 24C46 26.824 45.446 29.516 44.472 32ZM15.462 32C14.584 29.506 14 26.814 14 24C14 21.186 14.584 18.492 15.46 16H32.538C33.416 18.494 34 21.186 34 24C34 26.814 33.416 29.506 32.538 32H15.462ZM31.754 34C29.296 39.676 25.522 43.98 23.998 45.576C22.474 43.98 18.7 39.676 16.242 34H31.754ZM16.242 14C18.7 8.318 22.476 4.016 24 2.422C25.524 4.018 29.298 8.322 31.756 14H16.242ZM43.572 14H33.944C31.81 8.662 28.52 4.438 26.482 2.15C33.95 2.992 40.284 7.588 43.574 14H43.572ZM21.514 2.15C19.464 4.45 16.178 8.678 14.054 14H4.428C7.718 7.59 14.048 2.996 21.514 2.15ZM3.528 16H13.336C12.53 18.494 12 21.178 12 24C12 26.822 12.53 29.504 13.338 32H3.528C2.554 29.516 2 26.824 2 24C2 21.176 2.554 18.484 3.528 16ZM4.428 34H14.058C16.192 39.338 19.482 43.562 21.52 45.85C14.052 45.008 7.718 40.412 4.428 34ZM26.48 45.85C28.518 43.562 31.808 39.336 33.942 34H43.57C40.28 40.412 33.948 45.008 26.48 45.85Z" fill="#622C3A"/>
</g>
<defs>
<clipPath id="clip0_4444_771">
<rect width="48" height="48" fill="white"/>
</clipPath>
</defs>
</svg>
