<svg width="48" height="48" viewBox="0 0 48 48" fill="none" xmlns="http://www.w3.org/2000/svg">
<path d="M8.09738 7H21.7204V24.3002C21.7204 29.5757 20.0541 33.6688 16.7216 36.5795C13.3891 39.4901 8.4819 40.9636 2 41V29.7031C4.05077 29.7031 5.57054 29.2483 6.5593 28.3387C7.58469 27.4291 8.09738 26.0284 8.09738 24.1364V7ZM32.377 7H46V24.3002C46 29.5757 44.3337 33.6688 41.0012 36.5795C37.6687 39.4901 32.7615 40.9636 26.2796 41V29.7031C28.3304 29.7031 29.8502 29.2483 30.839 28.3387C31.8643 27.4291 32.377 26.0284 32.377 24.1364V7Z" fill="#622C3A"/>
</svg>
