<svg width="48" height="48" viewBox="0 0 48 48" fill="none" xmlns="http://www.w3.org/2000/svg">
<path d="M23.96 47.9718L22.708 47.3458C18.32 45.1518 4 36.9678 4 23.7458V10.2698C4 8.10983 5.376 6.20183 7.426 5.52383L24 0.027832L40.574 5.52383C42.622 6.20383 44 8.11183 44 10.2698V23.7458C44 38.7438 29.656 45.6818 25.26 47.4498L23.96 47.9718ZM24 2.13583L8.056 7.42183C6.826 7.82983 6 8.97383 6 10.2698V23.7458C6 35.8218 19.472 43.4938 23.602 45.5578L24.05 45.7818L24.514 45.5958C28.616 43.9458 42 37.4918 42 23.7478V10.2678C42 8.97383 41.174 7.82783 39.946 7.41983L24 2.13583Z" fill="#622C3A"/>
<path d="M21.002 30C20.234 30 19.464 29.708 18.878 29.122L12.302 22.718L13.696 21.284L20.282 27.698C20.684 28.098 21.318 28.096 21.706 27.708L34.296 15.29L35.702 16.714L23.116 29.128C22.534 29.71 21.768 30.002 21.002 30.002V30Z" fill="#622C3A"/>
</svg>
