<svg width="48" height="48" viewBox="0 0 48 48" fill="none" xmlns="http://www.w3.org/2000/svg">
<g clip-path="url(#clip0_4444_509)">
<path d="M7.07799 0.51979L7.00199 0.47979C5.12999 -0.38821 2.96199 -0.0502101 1.47599 1.34179C0.0819858 2.64579 -0.364014 4.54579 0.373986 6.43379L10.24 24.0038L0.493986 41.7058C-0.180014 43.4638 0.271986 45.3638 1.66799 46.6638C2.59799 47.5318 3.79199 47.9858 5.02799 47.9858C5.77599 47.9858 6.53799 47.8198 7.26999 47.4778L48.006 23.9978L7.07799 0.51979ZM2.17999 5.58379C1.79599 4.58779 2.04399 3.54779 2.84199 2.80179C3.29999 2.37379 4.02999 2.00179 4.87799 2.00179C5.27199 2.00179 5.69199 2.08379 6.12199 2.27779L42.248 22.9998H11.97L2.17999 5.58379ZM6.34799 45.7058C5.22399 46.2298 3.92399 46.0318 3.03199 45.2018C2.23199 44.4558 1.98199 43.4158 2.30399 42.5458L11.978 25.0018H42.266L6.34799 45.7058Z" fill="white"/>
</g>
<defs>
<clipPath id="clip0_4444_509">
<rect width="48" height="48" fill="white"/>
</clipPath>
</defs>
</svg>
