<svg width="166" height="34" viewBox="0 0 166 34" fill="none" xmlns="http://www.w3.org/2000/svg">
<path d="M1.48212 21.5256C1.48212 18.3314 1.48212 13.7339 1.48212 10.5397C1.48212 10.5397 2.06175 10.5397 2.99641 10.5397C5.20626 10.533 7.4161 10.5397 9.62595 10.5397C10.6838 10.5397 11.2344 10.0385 11.2344 9.06283C11.2344 7.04474 11.2634 3.49641 11.2272 1.47831L12.9081 1.47826C15.1977 1.52504 17.4945 1.49163 19.7913 1.49163C20.7042 1.49163 21.2838 1.49155 21.2838 1.49155C21.291 3.54306 21.2838 6.96455 21.2838 9.01606C21.2838 10.0385 21.82 10.533 22.9213 10.533C25.276 10.533 27.6308 10.533 29.9855 10.533C30.6883 10.533 31.6224 10.533 31.6224 10.533C31.6006 10.68 30.9347 11.7826 30.855 11.9162C28.4712 15.9658 26.0803 20.0154 23.6965 24.0649C23.298 24.7465 23.1365 25.0807 23.1365 25.0807C20.5064 25.0807 14.8561 25.093 12.226 25.093C12.226 25.093 12.5966 24.4592 13.053 23.684C15.2701 19.9151 17.4655 16.1395 19.726 12.3974C20.3492 11.3616 19.8275 10.7268 18.661 10.7669C16.8424 10.8337 15.0165 10.7869 13.1907 10.7869C12.0459 10.7869 11.5025 11.2948 11.5025 12.3439C11.5025 18.572 11.5025 24.7933 11.5098 31.0214C11.5098 31.576 11.5098 32.5124 11.5098 32.5124C11.5098 32.5124 10.3432 32.5048 10.1041 32.5048C7.69867 32.5182 3.88759 32.5115 1.48212 32.5115C1.48212 32.5115 1.48212 31.9769 1.48212 31.2085C1.48212 27.9808 1.48212 24.7532 1.48212 21.5256Z" fill="white"/>
<path d="M73.0599 32.5217H66.5394V10.5665H73.0599V32.5217Z" fill="white"/>
<path d="M110.971 16.6824L115.062 10.5665H122.268L114.841 21.5438L122.268 32.5217H115.062L110.971 26.4059L106.88 32.5217H99.6422L107.069 21.5438L99.6422 10.5665H106.88L110.971 16.6824Z" fill="white"/>
<path fill-rule="evenodd" clip-rule="evenodd" d="M56.0515 10.5665C66.9374 10.5982 67.1262 26.6135 56.0515 26.4571H44.5924V32.5059H38.0479V10.5665H56.0515ZM44.5924 20.9411H56.0515C58.285 20.9407 58.3164 16.0829 55.9885 16.0826H44.5924V20.9411Z" fill="white"/>
<path d="M97.3893 17.057H93.9221C91.5319 17.0571 89.5936 18.9866 89.5936 21.3669V24.7876H86.1575C83.7674 24.7877 81.8305 26.718 81.8305 29.0982V32.5059H75.3135V26.0161H78.7482C81.1383 26.016 83.0766 24.0856 83.0767 21.7055V18.2985H86.5439C88.9342 18.2985 90.8724 16.3682 90.8724 13.9879V10.5665H97.3893V17.057Z" fill="white"/>
<path d="M97.3908 32.5059H90.8731V26.2658C90.8732 26.1993 90.9004 26.1354 90.9477 26.0883C90.9949 26.0413 91.0589 26.0147 91.1257 26.0146H97.3908V32.5059Z" fill="white"/>
<path d="M141.821 16.0826H131.064V18.7785H138.231V24.2946H131.113V26.9898H142.199V32.5059H124.563V10.5665H141.821V16.0826Z" fill="white"/>
<path d="M157.968 21.5366V10.5665H164.518V32.5059H157.968L150.663 21.5366V32.5059H144.114V10.5665H150.663L157.968 21.5366Z" fill="white"/>
<path d="M81.8297 16.8058C81.8296 16.8723 81.8031 16.9364 81.7559 16.9834C81.7088 17.0303 81.6446 17.0568 81.5779 17.057H75.3128V10.5665H81.8297V16.8058Z" fill="white"/>
</svg>
