<svg width="48" height="48" viewBox="0 0 48 48" fill="none" xmlns="http://www.w3.org/2000/svg">
<g clip-path="url(#clip0_4444_503)">
<path d="M44.7 6.10018L38.78 0.180176L27.1 11.8602L34.06 18.8202C30.98 26.1002 25.86 31.2202 18.82 34.0802L11.86 27.1202L0.179993 38.7802L6.09999 44.7002C8.21999 46.8202 11.1 48.0002 14.2 48.0002C29.04 48.0002 47.98 29.0602 47.98 14.2202C47.98 11.1202 46.8 8.24018 44.68 6.10018H44.7ZM14.22 46.0002C11.64 46.0002 9.27999 45.0402 7.51999 43.2802L3.01999 38.7802L11.86 29.9402L18.32 36.4002L18.92 36.1602C27 33.0802 32.8 27.2802 36.14 18.9402L36.38 18.3202L29.9 11.8402L38.78 3.02018L43.28 7.52018C45.04 9.26018 46 11.6402 46 14.2202C46 27.8802 27.88 46.0002 14.22 46.0002Z" fill="white"/>
</g>
<defs>
<clipPath id="clip0_4444_503">
<rect width="48" height="48" fill="white"/>
</clipPath>
</defs>
</svg>
